<svg xmlns="http://www.w3.org/2000/svg" xmlns:xlink="http://www.w3.org/1999/xlink" version="1.1" x="0px" y="0px" viewBox="0 0 100 100" enable-background="new 0 0 100 100" viewport-full="#607D8B" xml:space="preserve"><path fill="#FF9800" fill-rule="evenodd" clip-rule="evenodd" d="M2.729,47.018c-0.134-0.433-0.256-0.867-0.369-1.3  c0.633,5.808,2.45,11.223,5.451,16.249c1.758,2.947,3.925,5.759,6.5,8.439c5.438,5.634,11.696,9.649,18.778,12.048  c4.313,1.462,8.933,2.319,13.856,2.58c7.587,0.394,14.604-0.711,21.047-3.311c-5.157,0.097-10.225-0.117-15.207-0.639  c-15.982-1.688-28.147-6.198-36.5-13.53h-0.013c-0.009-0.009-0.015-0.019-0.015-0.026c-0.004-0.005-0.01-0.011-0.015-0.016  C9.391,60.909,4.886,54.078,2.729,47.018z M73.029,19.71c3.811,3.615,7.45,7.526,10.914,11.734c1.716,2.086,3.062,3.81,4.032,5.173  c0,0.01,0.008,0.018,0.017,0.026l1.806,2.727c1.457,2.215,2.796,4.338,4.021,6.368c0.007,0.019,0.018,0.038,0.027,0.056  c0.678,1.121,1.294,2.17,1.854,3.149c0.545,0.961,1.035,1.852,1.468,2.677c1.601,3.048,2.43,5.18,2.49,6.395  c0,0.048,0.009,0.097,0.026,0.153c0.446,2.021,0.225,3.574-0.666,4.658l-0.014,0.014c-0.992,1.065-2.693,1.67-5.104,1.809h-0.013  c-0.701,0.039-1.438,0.039-2.21,0c-0.7-0.038-1.428-0.107-2.186-0.209c-0.386-0.052-0.78-0.113-1.183-0.181h-0.012l-2.615-0.542  c-10.781-3.355-18.55-5.691-23.305-7.007c-3.854-6.212-7.702-12.775-11.54-19.691c-7.694-13.858-11.536-22.575-11.527-26.154  c0-0.232-0.079-0.431-0.236-0.598c-0.167-0.167-0.361-0.25-0.584-0.25c-0.23,0-0.431,0.079-0.598,0.236  c-0.167,0.158-0.25,0.353-0.25,0.584v0.014c-0.093,3.728,3.819,12.718,11.735,26.976c3.903,7.026,7.81,13.685,11.721,19.981v0.013  c0.013,0.021,0.021,0.037,0.03,0.055c0.01,0.013,0.017,0.024,0.028,0.042c2.871,4.366,5.759,9.698,8.662,15.992  c0.87,1.912,1.64,3.666,2.308,5.256c0.005,0.012,0.01,0.023,0.013,0.036c0.012,0.02,0.02,0.041,0.029,0.061  c0.396,0.987,0.277,1.836-0.364,2.545c-0.212,0.232-0.46,0.43-0.748,0.598l-0.16,0.082c-0.074,0.035-0.147,0.071-0.222,0.107  c-0.33,0.148-0.663,0.294-0.995,0.438c-6.358,2.722-13.265,4.022-20.711,3.899c-0.703-0.015-1.411-0.039-2.121-0.077  c-4.643-0.244-9.024-1.003-13.146-2.274c-7.903-2.438-14.848-6.764-20.836-12.979c-4.586-4.749-7.935-9.91-10.046-15.482  c-1.264-2.986-2.1-6.067-2.51-9.239c-0.188-1.408-0.291-2.828-0.306-4.262c-0.063-5.061,0.943-10.284,3.017-15.671  c0.554-1.656,1.233-3.279,2.037-4.867c0.827-2.038,2.09-4.052,3.791-6.042c0.067-0.079,0.134-0.157,0.201-0.237  c0.436-0.543,0.855-1.021,1.26-1.432c0.129-0.083,0.261-0.167,0.395-0.251c3.118-2.837,6.753-4.368,10.908-4.588  c-0.28,0.4-0.562,0.835-0.848,1.307v0.014c-1.587,2.726-2.388,5.509-2.405,8.351c-0.001,0.192,0.066,0.355,0.201,0.494  c0.135,0.137,0.297,0.207,0.487,0.208c0.192,0.001,0.356-0.065,0.495-0.202c0.137-0.134,0.206-0.296,0.208-0.487  c0.019-2.609,0.757-5.165,2.21-7.668v0.014c0.367-0.609,0.728-1.156,1.086-1.641l0.006-0.006c0.376-0.515,0.751-0.959,1.127-1.334  c0.094-0.097,0.157-0.208,0.187-0.334l0.348-0.383c1.297-1.362,2.605-2.581,3.921-3.657c4.005-3.299,7.267-4.657,9.789-4.074h0.014  c0.028,0,0.061,0.004,0.097,0.014h-0.028C49.414,1.657,60.923,8.177,73.029,19.71z"></path></svg>
